<mxfile host="app.diagrams.net" modified="2024-02-14T15:39:27.958Z" agent="Mozilla/5.0 (Macintosh; Intel Mac OS X 10.15; rv:122.0) Gecko/20100101 Firefox/122.0" version="23.1.2" etag="e0iW-U13zQxtuEvYhAds" type="github">
  <diagram name="Page-1" id="62K0HwQQpIBfigSoEFov">
    <mxGraphModel>
      <root>
        <mxCell id="0" />
        <mxCell id="1" parent="0" />
      </root>
    </mxGraphModel>
  </diagram>
</mxfile>
